<svg xmlns="http://www.w3.org/2000/svg" width="64" height="64" viewBox="0 0 64 64">
  <g id="Group_1" data-name="Group 1" transform="translate(-1695 -970)">
    <g id="Ellipse_1" data-name="Ellipse 1" transform="translate(1695 970)" fill="rgba(0,0,0,0.2)" stroke="#fff" stroke-width="2">
      <circle cx="32" cy="32" r="32" stroke="none"/>
      <circle cx="32" cy="32" r="31" fill="none"/>
    </g>
    <g id="Layer_2" data-name="Layer 2" transform="translate(1717 994)">
      <path id="Path_1" data-name="Path 1" d="M24.86,9.92a1.28,1.28,0,0,0,0,1.818l5.071,4.819H16a1.28,1.28,0,1,0,0,2.561h13.9l-5.033,4.637a1.277,1.277,0,0,0,1.805,1.805l7.312-6.929a1.127,1.127,0,0,0,0-1.626L26.678,9.92a1.28,1.28,0,0,0-1.818,0Z" transform="translate(-14.722 -9.541)" fill="#fff"/>
    </g>
  </g>
</svg>
